<?xml version="1.0" encoding="UTF-8"?>
<svg version="1.0" viewBox="0 0 552.4 203.7" xml:space="preserve" xmlns="http://www.w3.org/2000/svg">
<g transform="translate(-123.6,-197.9)">
	<path d="m429.4 260.9h21.1l-32.1 107.3h-30l-32-107.3h21.1l25.9 89.4zm79.6 107.3h-16l-1.5-5.3c-6.9 4.5-15.1 6.9-23.3 6.9-14.3 0-20.5-9.8-20.5-23.4 0-16 6.9-22.1 22.9-22.1h18.9v-8.3c0-8.7-2.4-11.8-15-11.8-7.3 0.1-14.6 0.9-21.7 2.4l-2.4-15c8.8-2.4 17.8-3.7 26.9-3.7 24.6 0 32 8.7 32 28.4zm-19.6-29.6h-14.5c-6.4 0-8.2 1.8-8.2 7.8 0 5.3 1.8 8 8 8 5.2-0.1 10.3-1.5 14.8-4zm50.5-48.9v54.7c0 4.2 1.8 6.3 6.3 6.3s13.3-2.9 20.4-6.6v-54.4h19.6v78.5h-15l-1.9-6.6c-9.8 4.9-20.5 7.7-31.4 8.2-13 0-17.7-9.2-17.7-23.2v-56.9zm56.9 78.5v-110.5l19.6-2.7v113.2zm78.2-1.5c-5.5 1.9-11.4 3-17.2 3.1-14.3 0-21.6-6.8-21.6-20.8v-43.7h-11.7v-15.6h11.7v-19.5l19.6-2.7v22.2h20.2l-1.3 15.6h-18.9v41c-0.4 3 1.4 5.8 4.3 6.7 0.9 0.3 1.9 0.4 2.8 0.2 3.3-0.1 6.6-0.7 9.8-1.6zm-551.4-135.3 84.8 170.2 85.4-170.2zm94.9 34.1h9.9v9.9h-9.9zm-19.7 39.5h-9.8v-9.8h9.8zm0-14.8h-9.8v-9.8h9.8zm0-14.8h-9.8v-9.9h9.8zm14.9 44.4h-9.8v-9.9h9.8zm0-14.8h-9.8v-9.8h9.8zm0-14.8h-9.8v-9.8h9.8zm0-14.8h-9.8v-9.9h9.8zm4.8 5h9.9v9.8h-9.9zm0 24.6v-9.8h9.9v9.8zm158.8-70.4v-15h-13.8v15h-7v-36.2h7v15.2h13.8v-15.2h7v36.2zm32.8 0h-5.6l-0.5-1.8c-2.4 1.5-5.2 2.3-8 2.3-5 0-7.1-3.2-7.1-7.8 0-5.3 2.4-7.3 8-7.3h6.5v-2.7c0-2.9-0.9-3.9-5.2-3.9-2.5 0-5.1 0.3-7.5 0.8l-0.8-5c3-0.8 6.2-1.2 9.3-1.2 8.5 0 11.1 2.9 11.1 9.4zm-6.8-9.9h-5c-2.2 0-2.9 0.6-2.9 2.7s0.6 2.7 2.7 2.7c1.8 0 3.6-0.5 5.1-1.3zm21 10.4c-3.2 0-6.3-0.6-9.4-1.5l0.9-5c2.6 0.7 5.3 1.1 8 1.1 3 0 3.5-0.6 3.5-2.7 0-2-0.3-2.4-4.7-3.4-6.6-1.6-7.4-3.2-7.4-8.2s2.4-7.6 10.2-7.6c2.7 0 5.5 0.3 8.2 0.9l-0.7 5.3c-2.5-0.4-5-0.7-7.5-0.7-3 0-3.5 0.6-3.5 2.3 0 2.1 0.2 2.2 3.8 3.2 7.6 1.9 8.3 2.9 8.3 8.2 0.1 5.4-1.5 8.1-9.7 8.1zm31.2-0.5v-18.1c0-1.4-0.6-2.1-2.2-2.1-2.5 0.3-4.9 1-7.1 2.2v18.1h-6.8v-36.8l6.8 1v11.6c3.1-1.5 6.5-2.4 10-2.5 4.5 0 6.1 3.1 6.1 7.7v18.9zm12.5-29.8v-6.3h6.8v6.4zm0 29.8v-26.1h6.8v26.1zm12.3-25.9c0-6.5 4-10.3 13.3-10.3 3.4 0 6.8 0.4 10.1 1.2l-0.8 5.8c-3-0.5-6-0.8-9.1-0.9-4.9 0-6.4 1.6-6.4 5.3v13.7c0 3.8 1.5 5.3 6.4 5.3 3.1-0.1 6.1-0.4 9.1-0.9l0.8 5.8c-3.3 0.8-6.7 1.2-10.1 1.2-9.2 0-13.3-3.8-13.3-10.3zm38.3 26.4c-9.3 0-11.9-4.9-11.9-10.3v-6.6c0-5.3 2.7-10.3 11.9-10.3s11.9 4.9 11.9 10.3v6.6c0.1 5.4-2.6 10.3-11.9 10.3zm0-21.6c-3.6 0-5 1.6-5 4.5v7c0 3 1.4 4.5 5 4.5s5-1.6 5-4.5v-7c0.1-2.9-1.3-4.5-5-4.5zm31 0.4c-2.5 1.1-4.9 2.4-7.2 3.8v16.8h-6.8v-26.1h5.8l0.4 2.9c2.2-1.4 4.6-2.6 7.2-3.4zm27.2 12c0 5.8-2.7 9.2-9 9.2-2.4 0-4.9-0.3-7.3-0.7v10.6l-6.8 1v-37.5h5.3l0.7 2.2c2.5-1.8 5.5-2.7 8.6-2.7 5.3 0 8.4 3.1 8.4 9.1zm-16.2 2.9c2 0.4 4 0.7 6 0.7 2.5 0 3.4-1.1 3.4-3.5v-9.2c0-2.1-0.8-3.3-3.3-3.3-2.2 0.1-4.4 0.9-6.1 2.4z"/>
</g>
</svg>
